<svg xmlns="http://www.w3.org/2000/svg" viewBox="0 -36 512 512"><path fill="#5e6e82" d="M474.66 11.2h27.27v90.62H10.07V11.21h375.99"/><path fill="#ff415b" d="M77.91 55.45a19.44 19.44 0 1 1-38.88 0 19.44 19.44 0 0 1 38.88 0zm0 0"/><path fill="#fff68e" d="M140.84 55.45a19.44 19.44 0 1 1-38.88 0 19.44 19.44 0 0 1 38.88 0zm0 0"/><path fill="#a6ffb5" d="M203.77 55.45a19.44 19.44 0 1 1-38.88 0 19.44 19.44 0 0 1 38.88 0zm0 0"/><path fill="#fff" d="M10.07 101.82h491.86v329.72H10.07zm0 0"/><path d="M28.96 54.37c0 16.27 13.24 29.5 29.5 29.5s29.52-13.23 29.52-29.5a29.54 29.54 0 0 0-29.51-29.5 29.54 29.54 0 0 0-29.5 29.5zm38.88 0a9.38 9.38 0 0 1-18.74 0 9.38 9.38 0 0 1 18.74 0zm0 0M91.9 54.37a29.54 29.54 0 0 0 29.5 29.5 29.54 29.54 0 0 0 29.5-29.5 29.54 29.54 0 0 0-29.5-29.5 29.54 29.54 0 0 0-29.5 29.5zm38.87 0a9.38 9.38 0 0 1-18.74 0 9.38 9.38 0 0 1 18.74 0zm0 0M154.82 54.37a29.54 29.54 0 0 0 29.5 29.5 29.54 29.54 0 0 0 29.52-29.5 29.54 29.54 0 0 0-29.51-29.5 29.54 29.54 0 0 0-29.51 29.5zm38.88 0a9.38 9.38 0 0 1-18.74 0 9.38 9.38 0 0 1 18.74 0zm0 0"/><path d="M501.93.05h-27.27a10.07 10.07 0 0 0 0 20.14h17.2v70.48H20.14V20.2h365.92a10.07 10.07 0 1 0 0-20.14H10.07C4.51.05 0 4.56 0 10.12v420.34c0 5.56 4.5 10.07 10.07 10.07h491.86c5.56 0 10.07-4.51 10.07-10.07V10.12C512 4.56 507.5.05 501.93.05zM491.86 420.4H20.14V110.81h471.72zm0 0"/><path d="M84.08 289.96c0 5.1 3.4 8.64 8.25 8.64h47.13v24.24c0 5.4 5.9 7.86 11.38 7.86 5.66 0 11.38-2.7 11.38-7.86V298.6h8.58c4.54 0 8.06-5.7 8.06-10.6 0-5.2-2.52-10.79-8.06-10.79h-8.58v-26c0-5.8-6.13-7.85-11.38-7.85-7.02 0-11.38 3-11.38 7.85v26h-26.12l39.58-78.98c.65-1.3 1.08-2.4 1.08-3.57 0-5.43-6.85-9.03-11.38-9.03-4.21 0-7.82 2.26-9.9 6.22l-47.33 93.3c-.83 1.46-1.3 3.21-1.3 4.81zm0 0M242.63 331.87c29.05 0 45.04-15.85 45.04-44.65v-56.95c0-28.79-16-44.64-45.04-44.64-28.92 0-44.84 15.85-44.84 44.64v56.95c0 28.8 15.92 44.65 44.84 44.65zm-22.09-101.6c0-16.08 7.43-24.23 22.09-24.23 14.58 0 22.28 8.37 22.28 24.23v56.95c0 15.86-7.7 24.24-22.28 24.24-14.66 0-22.09-8.16-22.09-24.24zm0 0M314.06 298.6h47.14v24.24c0 5.4 5.9 7.86 11.38 7.86 5.65 0 11.38-2.7 11.38-7.86V298.6h8.58c4.53 0 8.05-5.7 8.05-10.6 0-5.2-2.52-10.79-8.05-10.79h-8.58v-26c0-5.8-6.14-7.85-11.38-7.85-7.02 0-11.38 3-11.38 7.85v26h-26.13l39.58-78.98c.65-1.3 1.08-2.4 1.08-3.57 0-5.43-6.84-9.03-11.37-9.03-4.22 0-7.83 2.26-9.9 6.22l-47.34 93.3c-.83 1.46-1.3 3.21-1.3 4.81 0 5.1 3.38 8.64 8.24 8.64zm0 0M46.08 194.25c5.56 0 10.06-4.51 10.06-10.07v-38h47.66a10.07 10.07 0 1 0 0-20.13H46.08c-5.56 0-10.07 4.5-10.07 10.06v48.07c0 5.56 4.5 10.07 10.07 10.07zm0 0M46.08 405.29h57.72a10.07 10.07 0 0 0 0-20.14H56.14v-38a10.07 10.07 0 0 0-20.13 0v48.07c0 5.56 4.5 10.07 10.07 10.07zm0 0M407.7 146.18h47.67v38a10.07 10.07 0 1 0 20.13 0V136.1c0-5.56-4.5-10.07-10.07-10.07h-57.72a10.07 10.07 0 1 0 0 20.14zm0 0M465.43 337.09a10.07 10.07 0 0 0-10.06 10.07v37.99H407.7a10.07 10.07 0 0 0 0 20.14h57.72c5.57 0 10.07-4.51 10.07-10.07v-48.06c0-5.57-4.5-10.07-10.07-10.07zm0 0M145.64 146.58c.77 0 1.54-.09 2.31-.27l.45-.1a10.07 10.07 0 0 0-4.61-19.6l-.44.1a10.07 10.07 0 0 0 2.3 19.87zm0 0M428.34 20.25c.76 0 1.54-.09 2.3-.27l.45-.1A10.07 10.07 0 1 0 426.5.26l-.45.1a10.07 10.07 0 0 0 2.3 19.88zm0 0"/></svg>