<?xml version="1.0" standalone="no"?>
<!DOCTYPE svg PUBLIC "-//W3C//DTD SVG 20010904//EN"
 "http://www.w3.org/TR/2001/REC-SVG-20010904/DTD/svg10.dtd">
<svg version="1.0" xmlns="http://www.w3.org/2000/svg"
 width="400.000000pt" height="400.000000pt" viewBox="0 0 400.000000 400.000000"
 preserveAspectRatio="xMidYMid meet">
<metadata>
Created by potrace 1.11, written by Peter Selinger 2001-2013
</metadata>
<g transform="translate(0.000000,400.000000) scale(0.100000,-0.100000)"
fill="#000000" stroke="none">
<path d="M230 3553 c0 -7 -13 -10 -34 -8 -28 3 -33 0 -29 -15 3 -10 14 -28 24
-39 11 -12 17 -21 14 -21 -3 0 6 -18 20 -40 14 -22 25 -44 25 -50 0 -5 3 -10
8 -10 4 0 12 -10 18 -23 28 -57 60 -113 71 -125 7 -7 16 -24 19 -38 3 -13 10
-21 15 -18 5 3 9 -3 9 -13 0 -10 9 -29 20 -43 11 -14 20 -29 20 -33 0 -5 13
-28 30 -51 16 -24 26 -46 23 -50 -4 -3 -2 -6 4 -6 6 0 14 -11 17 -25 4 -14 11
-23 16 -20 6 3 10 -3 10 -14 0 -11 7 -26 15 -34 8 -8 11 -17 8 -21 -4 -3 -2
-6 4 -6 6 0 13 -8 16 -17 4 -10 20 -40 37 -68 16 -27 42 -72 56 -100 15 -27
30 -52 33 -55 4 -3 18 -27 31 -55 14 -27 29 -53 33 -56 10 -7 66 -107 74 -131
3 -10 10 -18 15 -18 5 0 6 -4 3 -10 -3 -5 -2 -10 3 -10 5 0 12 -8 15 -17 8
-24 40 -77 50 -81 4 -2 5 -8 1 -13 -3 -5 -1 -9 3 -9 5 0 17 -18 27 -40 10 -22
22 -40 27 -40 6 0 8 -4 4 -9 -3 -5 2 -17 11 -25 8 -9 12 -16 8 -16 -4 0 0 -6
11 -13 10 -8 15 -19 11 -25 -4 -7 -3 -12 3 -12 6 0 18 -17 28 -37 9 -21 20
-40 25 -43 4 -3 14 -22 23 -43 8 -20 20 -37 25 -37 6 0 10 -9 10 -19 0 -11 4
-22 9 -26 6 -3 16 -18 24 -33 18 -36 41 -76 47 -82 12 -12 30 -51 30 -65 0 -9
5 -13 10 -10 5 3 10 1 10 -5 0 -7 9 -25 21 -41 11 -16 17 -29 14 -29 -4 0 1
-7 9 -16 9 -8 14 -19 11 -24 -3 -4 2 -10 10 -14 8 -3 15 -10 15 -16 0 -5 18
-39 40 -75 22 -36 40 -69 40 -74 0 -5 7 -14 15 -21 8 -7 12 -16 9 -21 -3 -5 0
-9 5 -9 6 0 11 -7 11 -15 0 -8 5 -15 10 -15 6 0 10 -5 10 -11 0 -6 9 -24 21
-40 11 -16 17 -29 12 -29 -4 0 -3 -4 3 -8 5 -4 22 -27 35 -52 45 -80 69 -121
84 -144 8 -12 12 -26 8 -29 -3 -4 -1 -7 4 -7 6 0 22 -22 36 -50 13 -27 28 -46
32 -42 5 4 5 -1 2 -10 -4 -13 -1 -18 10 -18 9 0 13 -3 10 -6 -6 -7 21 -63 35
-74 3 -3 8 -12 10 -20 2 -8 11 -23 20 -34 10 -10 15 -23 12 -28 -3 -4 -1 -8 4
-8 5 0 17 -18 27 -40 10 -22 22 -40 27 -40 5 0 7 -4 4 -9 -3 -5 1 -14 9 -21 8
-7 15 -19 15 -26 0 -8 5 -14 11 -14 5 0 7 -5 4 -10 -3 -6 -2 -10 3 -10 6 0 13
-11 16 -25 4 -14 11 -25 16 -25 6 0 10 -7 10 -16 0 -8 6 -22 13 -29 32 -37 38
-46 32 -55 -3 -6 0 -10 8 -10 7 0 19 11 25 25 6 14 16 25 22 25 6 0 9 4 5 9
-3 5 2 17 11 25 8 9 13 16 10 16 -6 0 11 31 47 87 15 24 27 47 27 52 0 6 8 15
18 20 9 6 14 11 9 11 -4 0 5 19 20 42 14 24 26 49 26 55 0 7 4 13 8 13 4 0 18
20 30 45 12 25 27 45 32 45 6 0 8 3 4 6 -6 6 50 104 67 116 6 4 7 8 3 8 -4 0
7 24 26 53 18 28 34 57 35 62 1 6 9 18 17 28 8 9 15 22 15 28 0 6 6 17 13 24
23 26 32 41 35 55 2 8 9 20 16 25 7 6 11 16 9 23 -3 6 0 12 6 12 6 0 11 5 11
10 0 6 11 27 24 48 12 20 24 42 25 47 1 6 8 17 15 25 7 8 28 42 46 75 19 33
38 63 44 67 6 4 7 8 2 8 -5 0 -1 9 9 20 10 11 14 20 9 20 -5 0 -4 4 2 8 6 4
22 28 36 54 14 26 28 44 32 41 4 -4 4 0 0 10 -3 10 -1 17 5 17 6 0 11 7 11 15
0 8 5 15 11 15 5 0 7 5 4 10 -3 6 -2 10 3 10 6 0 15 14 21 30 5 17 17 38 26
46 8 9 13 20 10 25 -4 5 -1 9 4 9 6 0 17 15 25 34 8 18 19 37 25 40 6 4 9 12
6 17 -4 5 -1 9 4 9 6 0 11 7 11 15 0 8 5 15 10 15 6 0 10 7 10 15 0 8 5 15 11
15 5 0 8 4 5 9 -3 4 6 23 19 41 14 19 25 40 25 47 0 7 5 13 11 13 5 0 8 4 5 9
-3 4 3 16 13 25 11 10 22 28 25 42 4 13 11 24 17 24 6 0 8 4 5 9 -3 5 1 14 9
21 8 7 12 16 9 21 -3 5 0 9 5 9 6 0 11 7 11 15 0 8 4 15 8 15 4 0 13 12 20 28
6 15 20 41 30 57 11 17 17 33 15 38 -2 4 1 7 7 7 6 0 16 14 21 30 6 17 15 30
20 30 5 0 9 7 9 15 0 8 5 15 12 15 6 0 8 3 5 6 -4 4 3 20 14 35 11 16 17 29
12 29 -4 0 0 5 10 11 9 6 15 14 12 20 -4 5 -1 9 4 9 6 0 11 5 11 11 0 6 9 23
20 39 11 15 17 30 13 34 -3 3 -1 6 5 6 7 0 12 7 12 15 0 8 5 15 10 15 6 0 10
8 10 19 0 10 7 24 15 31 8 7 15 19 15 28 0 8 3 13 6 9 5 -5 47 66 88 150 6 13
14 23 19 23 4 0 7 7 7 15 0 8 8 23 18 33 9 10 18 24 19 30 2 9 68 124 104 182
5 8 15 26 21 40 7 14 15 27 18 30 6 6 18 28 64 110 16 30 36 61 43 68 21 21 7
30 -42 29 -25 -1 -45 3 -45 8 0 7 -3 7 -8 0 -9 -13 -112 -13 -112 0 0 6 -3 6
-8 0 -9 -14 -105 -13 -114 0 -5 7 -8 6 -8 -1 0 -13 -70 -13 -70 1 0 7 -3 7 -8
0 -9 -13 -112 -13 -112 0 0 6 -3 6 -8 0 -9 -14 -105 -13 -114 0 -5 6 -8 6 -8
-1 0 -8 -17 -10 -52 -7 -29 2 -54 6 -56 8 -2 2 -15 0 -28 -5 -17 -7 -24 -6
-24 3 0 8 -4 7 -10 -3 -5 -8 -10 -10 -10 -5 0 10 -99 11 -125 1 -8 -3 -15 0
-15 7 0 8 -4 6 -10 -3 -5 -8 -10 -10 -10 -5 0 6 -13 10 -30 10 -16 0 -30 -4
-30 -9 0 -5 -7 -3 -15 4 -11 9 -15 9 -15 1 0 -7 -5 -9 -12 -5 -15 10 -58 12
-58 3 0 -4 -16 -3 -35 1 -23 5 -36 4 -39 -4 -2 -6 -5 -6 -5 -1 -1 10 -100 11
-126 1 -8 -3 -15 0 -15 7 0 8 -4 6 -10 -3 -7 -11 -10 -11 -10 -2 0 10 -5 10
-20 2 -11 -6 -20 -17 -20 -25 0 -8 -3 -15 -8 -15 -9 0 -48 -71 -44 -82 1 -4
-3 -8 -8 -8 -6 0 -15 -10 -20 -22 -6 -13 -14 -30 -19 -38 -5 -8 -27 -44 -47
-80 -21 -36 -42 -68 -47 -71 -5 -3 -9 -9 -8 -12 1 -16 -50 -110 -69 -127 -3
-3 -18 -30 -33 -60 -30 -60 -49 -92 -58 -100 -3 -3 -12 -20 -20 -37 -8 -18
-17 -33 -21 -33 -5 0 -8 -7 -8 -15 0 -18 -16 -20 -26 -3 -5 7 -3 8 6 3 7 -5 5
4 -6 18 -10 15 -23 27 -27 27 -5 0 -5 5 -2 10 3 6 1 10 -4 10 -6 0 -11 7 -11
15 0 8 -5 15 -10 15 -6 0 -9 3 -8 8 4 11 -44 92 -54 92 -5 0 -6 5 -2 11 3 6 2
14 -3 18 -5 3 -23 31 -39 61 -16 30 -31 57 -35 60 -3 3 -16 25 -30 50 -13 25
-28 48 -34 52 -5 4 -6 8 -2 8 5 0 1 7 -7 16 -9 8 -16 22 -16 30 0 8 -4 14 -9
14 -5 0 -13 10 -17 23 -3 12 -15 34 -26 50 -11 15 -16 27 -11 27 4 0 0 5 -10
11 -9 6 -15 14 -12 20 4 5 1 9 -4 9 -6 0 -11 7 -11 15 0 8 -5 15 -11 15 -5 0
-8 4 -5 9 14 23 -63 45 -93 27 -6 -4 -11 -1 -11 6 0 9 -3 9 -10 -2 -5 -8 -10
-10 -10 -4 0 14 -32 13 -42 -1 -5 -6 -8 -5 -8 2 0 9 -7 10 -25 3 -18 -7 -25
-6 -25 3 0 8 -4 7 -10 -3 -5 -8 -10 -10 -10 -4 0 14 -32 13 -42 -1 -5 -7 -8
-7 -8 0 0 10 -129 11 -156 1 -8 -3 -14 0 -14 7 0 8 -4 6 -10 -3 -5 -8 -10 -10
-10 -5 0 10 -99 11 -125 1 -8 -3 -15 0 -15 7 0 8 -3 8 -9 -2 -7 -11 -10 -11
-15 0 -5 11 -7 11 -12 1 -5 -10 -9 -10 -20 -1 -8 6 -14 8 -14 3 0 -12 -153
-11 -162 1 -5 7 -8 6 -8 0 0 -14 -110 -13 -110 0 0 7 -3 7 -8 0 -9 -13 -112
-13 -112 0 0 6 -3 6 -8 0 -9 -14 -264 -13 -274 0 -5 6 -8 6 -8 -2z"/>
</g>
</svg>
