<?xml version="1.0" standalone="no"?>
<!DOCTYPE svg PUBLIC "-//W3C//DTD SVG 20010904//EN"
 "http://www.w3.org/TR/2001/REC-SVG-20010904/DTD/svg10.dtd">
<svg version="1.0" xmlns="http://www.w3.org/2000/svg"
 width="512.000000pt" height="512.000000pt" viewBox="0 0 512.000000 512.000000"
 preserveAspectRatio="xMidYMid meet">
<g transform="translate(0.000000,512.000000) scale(0.100000,-0.100000)"
fill="#000000" stroke="none">
<path d="M2385 5114 c-11 -3 -55 -12 -98 -20 -273 -52 -547 -203 -732 -403
l-51 -54 -114 13 c-554 59 -1102 -285 -1310 -822 -98 -252 -106 -593 -20 -849
35 -105 95 -228 158 -324 91 -138 276 -308 427 -395 l56 -32 -1 -917 c-2 -826
0 -921 14 -969 49 -157 174 -279 335 -328 38 -11 286 -14 1512 -14 1408 0
1468 1 1520 19 127 43 212 109 273 210 74 123 70 61 74 1087 l3 921 49 27
c139 75 324 247 417 386 67 100 127 221 163 329 86 256 78 597 -20 849 -208
537 -756 881 -1310 822 l-114 -13 -51 54 c-183 197 -436 339 -726 404 -72 17
-407 30 -454 19z m371 -249 c161 -29 303 -84 434 -171 178 -118 315 -271 406
-454 71 -145 99 -245 118 -432 16 -147 28 -175 89 -195 48 -16 102 1 131 40
18 25 21 42 20 135 -1 170 -56 388 -140 554 l-34 68 24 6 c36 9 232 -13 306
-35 187 -53 319 -130 456 -266 148 -147 233 -292 286 -488 19 -70 22 -108 23
-252 0 -190 -15 -267 -79 -416 -94 -217 -281 -411 -502 -522 -39 -20 -78 -47
-87 -61 -15 -23 -17 -83 -17 -616 l0 -590 -1625 0 -1625 0 0 578 c0 682 10
623 -121 693 -122 64 -202 124 -294 220 -127 132 -207 276 -257 460 -20 72
-23 107 -23 254 1 144 4 182 23 252 53 196 138 341 286 488 137 136 269 213
456 266 74 22 270 44 306 35 l24 -6 -34 -68 c-84 -166 -139 -384 -140 -554 -1
-93 2 -110 20 -135 29 -39 83 -56 131 -40 61 20 73 48 89 195 7 72 20 160 29
194 113 446 473 781 927 863 101 18 288 18 394 0z m1432 -4187 c-3 -213 -7
-259 -21 -293 -23 -52 -72 -103 -122 -126 -38 -18 -98 -19 -1485 -19 -1387 0
-1447 1 -1485 19 -22 10 -54 34 -72 52 -60 63 -63 82 -63 364 l0 255 1626 0
1626 0 -4 -252z"/>
<path d="M1255 2792 c-37 -8 -73 -42 -85 -78 -44 -132 97 -458 326 -760 58
-76 85 -94 140 -94 49 0 103 51 111 105 4 36 0 48 -41 105 -172 244 -265 415
-292 535 -28 128 -34 144 -62 163 -31 22 -68 31 -97 24z"/>
<path d="M2535 2792 c-35 -8 -68 -36 -81 -69 -21 -50 -20 -752 1 -797 41 -87
169 -87 210 0 21 45 22 747 1 797 -20 49 -81 81 -131 69z"/>
<path d="M3815 2792 c-39 -9 -74 -43 -84 -80 -5 -20 -17 -68 -25 -107 -27
-120 -130 -311 -268 -497 -31 -43 -60 -87 -63 -99 -20 -63 43 -149 110 -149
54 0 81 18 139 94 229 302 370 628 326 760 -17 54 -82 91 -135 78z"/>
</g>
</svg>
